<svg width="20" height="20" viewBox="0 0 20 20" fill="none" xmlns="http://www.w3.org/2000/svg">
<g clip-path="url(#clip0_1474_3182)">
<path d="M10 7.5C11.375 7.5 12.5 8.625 12.5 10C12.5 11.375 11.375 12.5 10 12.5C8.62504 12.5 7.50004 11.375 7.50004 10C7.50004 8.625 8.62504 7.5 10 7.5ZM10 5.83333C7.70004 5.83333 5.83337 7.7 5.83337 10C5.83337 12.3 7.70004 14.1667 10 14.1667C12.3 14.1667 14.1667 12.3 14.1667 10C14.1667 7.7 12.3 5.83333 10 5.83333ZM1.66671 10.8333H3.33337C3.79171 10.8333 4.16671 10.4583 4.16671 10C4.16671 9.54166 3.79171 9.16666 3.33337 9.16666H1.66671C1.20837 9.16666 0.833374 9.54166 0.833374 10C0.833374 10.4583 1.20837 10.8333 1.66671 10.8333ZM16.6667 10.8333H18.3334C18.7917 10.8333 19.1667 10.4583 19.1667 10C19.1667 9.54166 18.7917 9.16666 18.3334 9.16666H16.6667C16.2084 9.16666 15.8334 9.54166 15.8334 10C15.8334 10.4583 16.2084 10.8333 16.6667 10.8333ZM9.16671 1.66666V3.33333C9.16671 3.79166 9.54171 4.16666 10 4.16666C10.4584 4.16666 10.8334 3.79166 10.8334 3.33333V1.66666C10.8334 1.20833 10.4584 0.833328 10 0.833328C9.54171 0.833328 9.16671 1.20833 9.16671 1.66666ZM9.16671 16.6667V18.3333C9.16671 18.7917 9.54171 19.1667 10 19.1667C10.4584 19.1667 10.8334 18.7917 10.8334 18.3333V16.6667C10.8334 16.2083 10.4584 15.8333 10 15.8333C9.54171 15.8333 9.16671 16.2083 9.16671 16.6667ZM4.99171 3.81666C4.66671 3.49166 4.13337 3.49166 3.81671 3.81666C3.49171 4.14166 3.49171 4.67499 3.81671 4.99166L4.70004 5.875C5.02504 6.2 5.55837 6.2 5.87504 5.875C6.19171 5.55 6.20004 5.01666 5.87504 4.69999L4.99171 3.81666ZM15.3 14.125C14.975 13.8 14.4417 13.8 14.125 14.125C13.8 14.45 13.8 14.9833 14.125 15.3L15.0084 16.1833C15.3334 16.5083 15.8667 16.5083 16.1834 16.1833C16.5084 15.8583 16.5084 15.325 16.1834 15.0083L15.3 14.125ZM16.1834 4.99166C16.5084 4.66666 16.5084 4.13333 16.1834 3.81666C15.8584 3.49166 15.325 3.49166 15.0084 3.81666L14.125 4.69999C13.8 5.02499 13.8 5.55833 14.125 5.875C14.45 6.19166 14.9834 6.2 15.3 5.875L16.1834 4.99166ZM5.87504 15.3C6.20004 14.975 6.20004 14.4417 5.87504 14.125C5.55004 13.8 5.01671 13.8 4.70004 14.125L3.81671 15.0083C3.49171 15.3333 3.49171 15.8667 3.81671 16.1833C4.14171 16.5 4.67504 16.5083 4.99171 16.1833L5.87504 15.3Z" fill="#0BA1C2"/>
</g>
<defs>
<clipPath id="clip0_1474_3182">
<rect width="20" height="20" fill="white"/>
</clipPath>
</defs>
</svg>
