<svg width="20" height="20" viewBox="0 0 20 20" fill="none" xmlns="http://www.w3.org/2000/svg">
<path fill-rule="evenodd" clip-rule="evenodd" d="M18.5236 0H1.47639C0.661112 0 0 0.661111 0 1.47639V18.5236C0 19.3389 0.661112 20 1.47639 20H18.5236C19.3389 20 20 19.3389 20 18.5236V1.47639C20 0.661111 19.3389 0 18.5236 0ZM2.95417 17.0389H5.96111V7.48611H2.95417V17.0389ZM2.725 4.4375C2.725 5.43472 3.50139 6.16389 4.45833 6.16389C5.41528 6.16389 6.19167 5.43472 6.19167 4.4375C6.19167 3.44028 5.41528 2.71111 4.45833 2.71111C3.50139 2.71111 2.725 3.44028 2.725 4.4375ZM14.0403 17.0472H17.0472V17.0458V11.1375C17.0472 8.22083 15.2347 7.225 13.5569 7.225C12.0056 7.225 10.9889 8.22917 10.6986 8.81667H10.6597V7.49306H7.76806V17.0486H10.775V11.8694C10.775 10.4875 11.65 9.81667 12.5417 9.81667C13.3861 9.81667 14.0403 10.2917 14.0403 11.8306V17.0472Z" fill="#0BA1C2"/>
</svg>
